<svg width="47" height="47" viewBox="0 0 47 47" fill="none" xmlns="http://www.w3.org/2000/svg">
<path fill-rule="evenodd" clip-rule="evenodd" d="M10.25 0.3125C11.1647 0.3125 11.9062 1.05403 11.9062 1.96875V3.625H35.0938V1.96875C35.0938 1.05403 35.8353 0.3125 36.75 0.3125C37.6647 0.3125 38.4062 1.05403 38.4062 1.96875V3.625H40.0625C43.7214 3.625 46.6875 6.59111 46.6875 10.25V13.5625V40.0625C46.6875 43.7214 43.7214 46.6875 40.0625 46.6875H6.9375C3.27861 46.6875 0.3125 43.7214 0.3125 40.0625V13.5625V10.25C0.3125 6.59111 3.27861 3.625 6.9375 3.625H8.59375V1.96875C8.59375 1.05403 9.33528 0.3125 10.25 0.3125ZM10.25 6.9375H36.75H40.0625C41.8919 6.9375 43.375 8.42056 43.375 10.25V11.9062H3.625V10.25C3.625 8.42056 5.10806 6.9375 6.9375 6.9375H10.25ZM3.625 15.2187H43.375V40.0625C43.375 41.8919 41.8919 43.375 40.0625 43.375H6.9375C5.10806 43.375 3.625 41.8919 3.625 40.0625V15.2187ZM15.0625 19.125H31.9375C32.8323 19.1259 33.6902 19.4554 34.3229 20.0413C34.9556 20.6271 35.3115 21.4215 35.3125 22.25V34.75C35.3115 35.5785 34.9556 36.3729 34.3229 36.9587C33.6902 37.5446 32.8323 37.8741 31.9375 37.875H15.0625C14.1677 37.8741 13.3098 37.5446 12.6771 36.9587C12.0444 36.3729 11.6885 35.5785 11.6875 34.75V22.25C11.6885 21.4215 12.0444 20.6271 12.6771 20.0413C13.3098 19.4554 14.1677 19.1259 15.0625 19.125ZM29.125 22.645C28.7088 22.3875 28.2194 22.25 27.7188 22.25C27.0476 22.2506 26.4042 22.4978 25.9297 22.9372C25.4551 23.3766 25.1882 23.9723 25.1875 24.5938C25.1875 25.0573 25.336 25.5104 25.6141 25.8959C25.8922 26.2813 26.2876 26.5817 26.7501 26.7591C27.2126 26.9365 27.7216 26.9829 28.2126 26.8925C28.7036 26.802 29.1546 26.5788 29.5086 26.251C29.8626 25.9233 30.1037 25.5056 30.2014 25.051C30.299 24.5963 30.2489 24.1251 30.0573 23.6968C29.8657 23.2686 29.5413 22.9025 29.125 22.645ZM13.8693 35.8549C14.1857 36.1479 14.6149 36.3125 15.0625 36.3125H19.0898L25.2713 30.5889L21.8463 27.4243C21.3892 27.0029 20.7758 26.7587 20.1311 26.7415C19.4864 26.7243 18.8589 26.9353 18.3763 27.3315L13.375 31.4478V34.75C13.375 35.1644 13.5528 35.5618 13.8693 35.8549ZM33.1307 35.8549C33.4472 35.5618 33.625 35.1644 33.625 34.75V32.3008L31.1301 30.376C30.6748 30.0212 30.0984 29.8273 29.5033 29.8287C28.9082 29.8302 28.3329 30.0268 27.8796 30.3838L21.4766 36.3125H31.9375C32.3851 36.3125 32.8143 36.1479 33.1307 35.8549Z" fill="#180F4A"/>
</svg>
